<?xml version="1.0" encoding="utf-8"?>
<!-- Generator: Adobe Illustrator 22.1.0, SVG Export Plug-In . SVG Version: 6.00 Build 0)  -->
<svg version="1.1" id="Capa_1" xmlns="http://www.w3.org/2000/svg" xmlns:xlink="http://www.w3.org/1999/xlink" x="0px" y="0px"
	 viewBox="0 0 124 89" style="enable-background:new 0 0 124 89;" xml:space="preserve">
<style type="text/css">
	.st0{fill:#616463;}
	.st1{fill:#143F5C;}
	.st2{fill:#D0D0D0;}
</style>
<g>
	<g>
		<g>
			<g>
				<path className="st0" d="M30.5,14.5c2.8,5.6,0.5,12.3-5,15.1c-5.6,2.8-12.3,0.5-15.1-5c-2.8-5.6-0.5-12.3,5-15.1
					C20.9,6.6,27.7,8.9,30.5,14.5z"/>
				<path className="st0" d="M54.8,70.4c2,4,0.4,8.8-3.6,10.8c-4,2-8.8,0.4-10.8-3.6c-2-4-0.4-8.8,3.6-10.8C48,64.8,52.8,66.4,54.8,70.4
					z"/>
				<g>
					
						<rect x="32.7" y="16.3" transform="matrix(0.8944 -0.4472 0.4472 0.8944 -17.3121 20.1483)" className="st0" width="2.7" height="60.9"/>
				</g>
			</g>
			<g>
				<g>
					<path className="st1" d="M92.2,63.1c4.4-4.4,11.5-4.4,15.9,0c4.4,4.4,4.4,11.5,0,15.9c-4.4,4.4-11.5,4.4-15.9,0
						C87.8,74.7,87.8,67.6,92.2,63.1z"/>
				</g>
				<g>
					<path className="st1" d="M51.4,53.9c-3.1-3.1-3.1-8.2,0-11.4c3.1-3.1,8.2-3.1,11.4,0c3.1,3.1,3.1,8.2,0,11.4
						C59.7,57.1,54.6,57.1,51.4,53.9z"/>
					<g>
						
							<rect x="77.3" y="35.3" transform="matrix(0.4696 -0.8829 0.8829 0.4696 -10.9601 101.1053)" className="st1" width="2.7" height="48.7"/>
					</g>
				</g>
			</g>
		</g>
		<g>
			<g>
				<path className="st1" d="M101.5,21.4c0,5.3-4.3,9.7-9.7,9.7c-5.4,0-9.7-4.3-9.7-9.7c0-5.4,4.3-9.7,9.7-9.7
					C97.2,11.7,101.5,16.1,101.5,21.4z"/>
				<path className="st1" d="M82.8,37.8c2,2,2,5.2,0,7.2c-2,2-5.2,2-7.2,0c-2-2-2-5.2,0-7.2C77.6,35.8,80.8,35.8,82.8,37.8z"/>
			</g>
			<g>
				<path className="st2" d="M28.1,65c2,2,2,5.3,0,7.4c-2,2-5.3,2-7.4,0c-2-2-2-5.3,0-7.4C22.8,62.9,26.1,62.9,28.1,65z"/>
				<path className="st2" d="M16.5,53.5c1.3,1.3,1.3,3.5,0,4.8c-1.3,1.3-3.5,1.3-4.8,0c-1.3-1.3-1.3-3.5,0-4.8
					C13,52.2,15.2,52.2,16.5,53.5z"/>
			</g>
		</g>
	</g>
</g>
<g>
</g>
<g>
</g>
<g>
</g>
<g>
</g>
<g>
</g>
<g>
</g>
<g>
</g>
<g>
</g>
<g>
</g>
<g>
</g>
<g>
</g>
<g>
</g>
<g>
</g>
<g>
</g>
<g>
</g>
</svg>
